# xmcd
#
# Track frame offsets:
#	150
#	22015
#	35193
#	57246
#	80198
#	97919
#	110523
#	133185
#	148130
#	174956
#	191186
#	199431
#	209257
#	222051
#	239185
#	257743
#	270331
#	285917
#	303227
#
# Disc length: 4291 seconds
#
# Revision: 2
# Processed by: cddbd v1.5.1PL2 Copyright (c) Steve Scherf et al.
# Submitted via: audiograbber 1.83.01
#
DISCID=2810c113
DTITLE=diverse Interpreten - Oldies 2
DYEAR=1900
DGENRE=
TTITLE0=I've Had The Time of My Life
TTITLE1=Ines Etti - Once In A Lifetime
TTITLE2=Midnight Man
TTITLE3=I Want To Know What Love Is
TTITLE4=Relax
TTITLE5=Una paloma blanca
TTITLE6=Careless Whisper_2
TTITLE7=gimme,gimme
TTITLE8=Please Forgive Me
TTITLE9=Summer of 69
TTITLE10=Rave On
TTITLE11=It's So Easy
TTITLE12=Let's Work Together
TTITLE13=Chicago hard to say i´m sorry
TTITLE14=Wicked Game
TTITLE15=Let's twist again
TTITLE16=Substitude
TTITLE17=Girls Just Wanna Have Fun
TTITLE18=Hungry Eyes
EXTD=
EXTT0=
EXTT1=
EXTT2=
EXTT3=
EXTT4=
EXTT5=
EXTT6=
EXTT7=
EXTT8=
EXTT9=
EXTT10=
EXTT11=
EXTT12=
EXTT13=
EXTT14=
EXTT15=
EXTT16=
EXTT17=
EXTT18=
PLAYORDER=
